<svg id="shopping-bag-icon" xmlns="http://www.w3.org/2000/svg" width="16.598" height="20.933" viewBox="0 0 16.598 20.933">
  <g id="Group_87" data-name="Group 87">
    <g id="Group_86" data-name="Group 86">
      <path id="Path_53" data-name="Path 53" d="M69.608,17.262l-.935-11.78a1.472,1.472,0,0,0-1.461-1.353H65.365V4.046a4.046,4.046,0,0,0-8.093,0v.083H55.426a1.472,1.472,0,0,0-1.461,1.352L53.03,17.264a3.409,3.409,0,0,0,3.4,3.669h9.781a3.408,3.408,0,0,0,3.4-3.671ZM58.5,4.046a2.82,2.82,0,1,1,5.64,0v.083H58.5Zm9.312,14.961a2.16,2.16,0,0,1-1.6.7H56.429a2.182,2.182,0,0,1-2.176-2.348l.935-11.783a.24.24,0,0,1,.239-.221h1.846v1.51a.613.613,0,0,0,1.226,0V5.356h5.64v1.51a.613.613,0,0,0,1.226,0V5.356h1.846a.241.241,0,0,1,.239.223l.935,11.78A2.16,2.16,0,0,1,67.811,19.008Z" transform="translate(-53.02)" fill="#fff"/>
    </g>
  </g>
  <g id="Group_89" data-name="Group 89" transform="translate(5.357 10.217)">
    <g id="Group_88" data-name="Group 88">
      <path id="Path_54" data-name="Path 54" d="M189.756,250.073a.613.613,0,0,0-.867,0l-2.738,2.737-1.053-1.053a.613.613,0,0,0-.867.867l1.486,1.486a.613.613,0,0,0,.867,0l3.171-3.171A.613.613,0,0,0,189.756,250.073Z" transform="translate(-184.052 -249.893)" fill="#fff"/>
    </g>
  </g>
</svg>
